# xmcd
#
# Track frame offsets:
#	150
#	20712
#	46347
#	66505
#	103112
#	125772
#	157637
#	181660
#	213192
#	230962
#	249775
#
# Disc length: 3732
#
# Revision: 6
# Processed by: cddbd v1.5.1PL0 Copyright (c) Steve Scherf et al.
# Submitted via: ExactAudioCopy v0.95a5
# Normalized: r5:DSETVAR1
#
DISCID=920e920b
DTITLE=Various Artist - Depression Blues- Nobody Knows You When You're Down and Out
DYEAR=1998
DGENRE=Blues
TTITLE0=Joe Williams - Nobody Knows the Way I Feel
TTITLE1=Barry Levenson - Late Show
TTITLE2=Jimmy Witherspoon - Nobody Knows You When You're Down and Out
TTITLE3=Junior Parker - Funny How Time Slips Away
TTITLE4=Eddie "Cleanhead" Vinson - I Had a Dream
TTITLE5=Buddy Guy - Dedication To the Late T-Bone Walker
TTITLE6=Barry Goldberg - More Soul
TTITLE7=Muddy Waters - Long Distance Call
TTITLE8=J. Allen Blues Review - Between Friends
TTITLE9=T-Bone Walker - Woman
TTITLE10=Jimmy McGriff - Georgia On My Mind
EXTD=LABEL =Delta Music Inc\nID =17185\nUPC =018111-718523\nCOPYRIGHT =1998
EXTT0=Joe Williams
EXTT1=Barry Levenson
EXTT2=Jimmy Witherspoon
EXTT3=Junior Parker
EXTT4=Eddie Vinson
EXTT5=Buddy Guy
EXTT6=Barry Goldberg
EXTT7=Various Artists and Muddy Waters
EXTT8=J. Allen Blues Review
EXTT9=T-Bone Walker
EXTT10=Various Artists and Jimmy McGriff
PLAYORDER=
